<?xml version="1.0" encoding="utf-8"?>
<!-- Generator: Adobe Illustrator 16.0.0, SVG Export Plug-In . SVG Version: 6.00 Build 0)  -->
<!DOCTYPE svg PUBLIC "-//W3C//DTD SVG 1.1//EN" "http://www.w3.org/Graphics/SVG/1.1/DTD/svg11.dtd">
<svg version="1.1" id="Layer_1" xmlns="http://www.w3.org/2000/svg" xmlns:xlink="http://www.w3.org/1999/xlink" x="0px" y="0px"
	 width="72px" height="72px" viewBox="0 0 72 72" enable-background="new 0 0 72 72" xml:space="preserve">
<g id="XCFrwt.tif">
	<g>
		<path fill="#D1B89B" d="M34.564,7.349c0.969,0,1.943,0,2.915,0c0.24,0.047,0.485,0.101,0.729,0.137
			c1.637,0.265,3.309,0.406,4.911,0.807c13.756,3.47,23.136,16.758,21.304,31.268c-0.811,6.435-3.431,12.037-8.049,16.566
			c-7.586,7.447-16.682,10.001-27.061,7.719C18.608,61.489,9.802,52.221,7.91,41.432c-0.231-1.31-0.375-2.634-0.561-3.953
			c0-0.971,0-1.945,0-2.915c0.041-0.197,0.113-0.394,0.125-0.59c0.239-3.926,1.256-7.65,3.113-11.099
			c4.342-8.085,11.018-13.107,20.025-14.96C31.915,7.648,33.246,7.535,34.564,7.349z M39.199,57.402c0-7.174,0-14.266,0-21.438
			c0.316,0,0.564,0,0.811,0c1.527,0,3.055-0.017,4.581,0.011c0.478,0.008,0.634-0.152,0.683-0.621c0.14-1.354,0.345-2.703,0.5-4.058
			c0.09-0.814,0.135-1.636,0.205-2.539c-2.285,0-4.476,0-6.729,0c0-1.481-0.002-2.887,0-4.292c0-1.671,0.728-2.396,2.403-2.399
			c1.427,0,2.854,0,4.281,0c0-2.52,0-4.959,0-7.463c-1.363,0-2.68-0.028-3.994,0.006c-1.729,0.051-3.479,0.013-5.182,0.258
			c-3.505,0.509-5.786,2.785-6.226,6.278c-0.238,1.892-0.114,3.83-0.148,5.748c-0.007,0.616,0,1.236,0,1.94
			c-1.475,0-2.869,0-4.288,0c0,2.414,0,4.735,0,7.141c1.435,0,2.831,0,4.311,0c0,7.189,0,14.301,0,21.426
			C33.357,57.402,36.218,57.402,39.199,57.402z"/>
	</g>
</g>
<rect x="-30.105" y="39.609" fill="#D1B89B" width="12.389" height="4.416"/>
</svg>
