<?xml version="1.0" encoding="utf-8"?>
<!-- Generator: Adobe Illustrator 16.0.0, SVG Export Plug-In . SVG Version: 6.00 Build 0)  -->
<!DOCTYPE svg PUBLIC "-//W3C//DTD SVG 1.1//EN" "http://www.w3.org/Graphics/SVG/1.1/DTD/svg11.dtd">
<svg version="1.1" id="Layer_1" xmlns="http://www.w3.org/2000/svg" xmlns:xlink="http://www.w3.org/1999/xlink" x="0px" y="0px"
	 width="72px" height="72px" viewBox="0 0 72 72" enable-background="new 0 0 72 72" xml:space="preserve">
<rect x="-30.105" y="39.609" fill="#D1B89B" width="12.389" height="4.417"/>
<g id="ULjpF5.tif">
	<g>
		<path fill="#D1B89B" d="M7.779,37.692c0-1.272,0-2.545,0-3.815c0.086-0.682,0.161-1.367,0.258-2.047
			c0.827-5.645,3.072-10.652,6.85-14.935c4.617-5.23,10.379-8.419,17.285-9.504c0.807-0.127,1.617-0.225,2.428-0.333
			c1.27,0,2.542,0,3.818,0c0.678,0.086,1.359,0.161,2.041,0.26c5.664,0.827,10.687,3.086,14.979,6.885
			c5.206,4.609,8.377,10.36,9.463,17.245c0.129,0.807,0.223,1.619,0.335,2.43c0,1.271,0,2.543,0,3.815
			c-0.09,0.68-0.161,1.362-0.262,2.046c-0.824,5.646-3.073,10.654-6.849,14.935c-4.613,5.23-10.382,8.419-17.284,9.506
			c-0.806,0.129-1.618,0.223-2.424,0.331c-1.275,0-2.548,0-3.818,0c-0.681-0.086-1.362-0.159-2.043-0.258
			c-5.666-0.829-10.69-3.084-14.98-6.886c-5.205-4.608-8.378-10.361-9.464-17.244C7.985,39.315,7.888,38.501,7.779,37.692z
			 M36.49,52.073v0.004c3.496,0,6.993,0.065,10.487-0.021c3.094-0.073,5.769-2.735,5.802-5.82c0.075-6.62,0.04-13.239,0.045-19.857
			c0-0.372-0.011-0.748-0.028-1.122c-0.149-2.995-2.775-5.636-5.784-5.753c-1.567-0.063-3.139-0.041-4.711-0.036
			c-5.42,0.004-10.843-0.034-16.266,0.046c-3.072,0.042-5.768,2.738-5.804,5.82c-0.069,6.618-0.034,13.237-0.04,19.858
			c-0.003,0.373,0.008,0.747,0.027,1.12c0.145,2.974,2.757,5.672,5.726,5.741C29.458,52.137,32.974,52.073,36.49,52.073z"/>
		<path fill-rule="evenodd" clip-rule="evenodd" fill="#D1B89B" d="M23.38,32.451c1.625,0,3.207,0,4.79,0
			c-1.315,4.376-0.386,8.062,3.406,10.738c2.969,2.094,7.018,2.004,9.956-0.037c1.716-1.189,2.906-2.783,3.51-4.786
			c0.593-1.972,0.484-3.938-0.25-5.911c1.63,0,3.201,0,4.834,0c0.012,0.181,0.033,0.357,0.033,0.538
			c0.002,4.166,0.006,8.336,0,12.504c-0.002,1.762-0.854,2.957-2.392,3.346c-0.321,0.079-0.666,0.092-0.999,0.092
			c-6.506,0.004-13.008,0.008-19.514,0.002c-1.739-0.002-2.903-0.846-3.3-2.374c-0.08-0.304-0.099-0.626-0.103-0.94
			c-0.005-4.282-0.002-8.562-0.002-12.843C23.349,32.686,23.366,32.594,23.38,32.451z"/>
		<path fill-rule="evenodd" clip-rule="evenodd" fill="#D1B89B" d="M30.761,35.794c0.03-3.226,2.594-5.779,5.776-5.754
			c3.2,0.022,5.729,2.596,5.714,5.817c-0.015,3.114-2.619,5.684-5.748,5.673C33.335,41.516,30.736,38.922,30.761,35.794z"/>
		<path fill-rule="evenodd" clip-rule="evenodd" fill="#D1B89B" d="M43.549,28.728c0-1.827,0-3.63,0-5.474c1.824,0,3.643,0,5.489,0
			c0,1.812,0,3.611,0,5.474C47.229,28.728,45.434,28.728,43.549,28.728z"/>
	</g>
</g>
</svg>
