<?xml version="1.0" encoding="utf-8"?>
<!-- Generator: Adobe Illustrator 16.0.0, SVG Export Plug-In . SVG Version: 6.00 Build 0)  -->
<!DOCTYPE svg PUBLIC "-//W3C//DTD SVG 1.1//EN" "http://www.w3.org/Graphics/SVG/1.1/DTD/svg11.dtd">
<svg version="1.1" id="Layer_1" xmlns="http://www.w3.org/2000/svg" xmlns:xlink="http://www.w3.org/1999/xlink" x="0px" y="0px"
	 width="216px" height="288px" viewBox="0 0 216 288" enable-background="new 0 0 216 288" xml:space="preserve">
<g>
	<g>
		<path fill="#FFFFFF" d="M97.15,43.614c-10.822,3.41-20.392,10.787-28.535,18.478C57.966,72.114,48.919,84.085,42.029,96.961
			c-7.83,14.615-12.91,30.623-14.094,47.222c-1.288,18.303,2.854,36.643,11.24,52.894c10.961,21.228,28.639,38.278,47.883,52.024
			c2.889,2.088,5.847,4.07,8.839,6.021c2.366,1.53,5.776,0.485,7.134-1.879c1.496-2.541,0.487-5.603-1.879-7.136
			c-10.996-7.133-20.635-14.476-29.996-23.731c-4.037-4.002-7.865-8.213-11.415-12.632c-0.209-0.243-1.218-1.531-0.591-0.766
			c-0.383-0.487-0.731-0.976-1.114-1.461c-0.8-1.08-1.601-2.158-2.366-3.271c-1.392-2.02-2.749-4.105-4.037-6.194
			c-2.47-4.106-4.663-8.387-6.577-12.806c0.453,1.078-0.104-0.209-0.244-0.592c-0.209-0.487-0.383-0.975-0.591-1.463
			c-0.418-1.077-0.835-2.191-1.218-3.271c-0.73-2.088-1.392-4.21-1.948-6.368c-0.557-2.088-1.044-4.21-1.462-6.332
			c-0.174-0.976-0.348-1.914-0.522-2.889c-0.07-0.486-0.139-0.939-0.209-1.428c-0.035-0.243-0.069-0.486-0.104-0.73
			c0.209,1.496,0.035,0.244,0-0.035c-0.487-4.035-0.73-8.143-0.661-12.214c0.035-2.019,0.104-4.071,0.244-6.09
			c0.07-0.905,0.139-1.845,0.244-2.749c0.035-0.453,0.104-0.905,0.139-1.357c0.035-0.417,0.244-2.296,0.07-0.661
			c0.348-3.863,1.322-7.76,2.262-11.519c0.939-3.758,2.123-7.447,3.445-11.066c0.313-0.87,0.661-1.775,1.009-2.645
			c0.174-0.418,0.313-0.835,0.487-1.218c0.07-0.208,0.174-0.417,0.244-0.626c0.174-0.452-0.487,1.114,0,0.035
			c0.731-1.706,1.497-3.41,2.332-5.116c3.236-6.681,7.064-13.084,11.379-19.139c0.487-0.661,0.975-1.357,1.461-2.019
			c0.243-0.313,0.487-0.661,0.731-0.974c0.244-0.313,1.252-1.74,0.313-0.417c0.975-1.392,2.123-2.68,3.236-4.002
			c2.192-2.61,4.455-5.115,6.855-7.551c2.192-2.227,4.419-4.35,6.786-6.403c1.148-0.975,2.296-1.949,3.479-2.888
			c0.278-0.244,0.626-0.453,0.905-0.696c-0.626,0.626-0.696,0.557-0.07,0.07c0.592-0.453,1.183-0.87,1.775-1.288
			c2.123-1.531,4.315-2.958,6.577-4.28c1.009-0.592,2.053-1.148,3.097-1.67c0.487-0.244,1.009-0.488,1.496-0.731
			c0.244-0.104,0.453-0.208,0.696-0.313c1.044-0.487-1.288,0.487-0.209,0.104c0.939-0.348,1.879-0.73,2.819-1.009
			c2.679-0.835,4.419-3.619,3.654-6.438C102.857,44.623,99.865,42.779,97.15,43.614L97.15,43.614z"/>
	</g>
</g>
<g>
	<g>
		<path fill="#FFFFFF" d="M181.677,32.792c-8.907,3.062-17.261,8.804-24.081,15.172c-6.402,5.951-11.762,13.188-15.381,21.158
			c-4.837,10.579-6.82,22.062-6.542,33.65c0.278,10.962,2.505,21.854,7.69,31.598c3.826,7.204,9.256,13.397,14.929,19.244
			c2.437,2.54,4.94,5.046,7.237,7.69c0.558,0.625,1.08,1.252,1.603,1.913c0.138,0.14,0.242,0.313,0.382,0.452
			c0.452,0.557,0,0.487-0.174-0.243c0.104,0.349,0.661,0.87,0.87,1.183c0.974,1.324,1.879,2.716,2.679,4.177
			c0.418,0.766,0.836,1.565,1.185,2.366c0.278,0.593,0.87,1.113,0.069,0.14c0.278,0.349,0.383,1.009,0.521,1.427
			c0.626,1.811,1.113,3.688,1.461,5.568c0.104,0.521,0.174,1.044,0.277,1.602c0.035,0.277,0.141,1.008-0.033-0.313
			c0.033,0.243,0.068,0.487,0.104,0.731c0.141,1.112,0.211,2.227,0.279,3.34c0.104,2.297,0.069,4.629-0.068,6.959
			c-0.07,1.08-0.174,2.123-0.313,3.168c-0.034,0.277-0.07,0.521-0.104,0.801c0.174-1.254,0.034-0.279,0,0.033
			c-0.104,0.593-0.209,1.219-0.312,1.811c-0.452,2.471-1.043,4.941-1.74,7.377c-0.729,2.438-1.564,4.838-2.506,7.204
			c-0.104,0.243-0.484,1.183-0.068,0.174c-0.104,0.278-0.242,0.558-0.349,0.802c-0.243,0.555-0.487,1.077-0.729,1.635
			c-0.592,1.218-1.185,2.437-1.846,3.619c-1.32,2.437-2.748,4.801-4.314,7.099c-0.695,1.044-1.426,2.054-2.191,3.063
			c-0.592,0.799-0.174,0.242-0.035,0.068c-0.242,0.312-0.486,0.626-0.73,0.939c-0.486,0.625-1.008,1.218-1.53,1.845
			c-1.845,2.157-3.827,4.176-5.915,6.09c-1.045,0.938-2.088,1.878-3.167,2.783c-0.244,0.209-0.522,0.418-0.767,0.627
			c-0.174,0.14-1.01,0.8-0.312,0.278c-0.592,0.451-1.219,0.903-1.811,1.355c-2.437,1.775-5.01,3.376-7.621,4.838
			c-2.471,1.355-3.271,4.732-1.879,7.133c1.461,2.473,4.664,3.237,7.135,1.881c20.078-11.207,35.146-31.041,40.02-53.558
			c2.053-9.396,2.471-19.312,0.104-28.674c-1.914-7.517-6.194-13.919-11.311-19.627c-4.906-5.498-10.16-10.578-14.858-16.25
			c-0.453-0.522,0.592,0.835,0.208,0.279c-0.139-0.174-0.277-0.348-0.418-0.522c-0.312-0.418-0.592-0.801-0.903-1.218
			c-0.592-0.835-1.185-1.706-1.74-2.575c-1.112-1.775-2.157-3.584-3.098-5.498c-0.242-0.522-0.486-1.01-0.729-1.532
			c-0.141-0.312-0.695-1.74-0.244-0.522c-0.418-1.113-0.869-2.227-1.252-3.34c-0.836-2.436-1.463-4.907-1.984-7.412
			c-0.242-1.218-0.451-2.436-0.625-3.654c-0.176-1.009-0.036-0.243,0-0.034c-0.036-0.313-0.07-0.662-0.105-0.975
			c-0.104-0.835-0.174-1.67-0.242-2.505c-0.278-3.236-0.35-6.473-0.244-9.709c0.035-1.357,0.104-2.68,0.209-4.037
			c0.07-0.731,0.14-1.462,0.209-2.192c0.035-0.313,0.068-0.626,0.104-0.974c0.07-0.627-0.14,0.73,0.034-0.279
			c0.453-2.68,0.976-5.359,1.706-8.004c0.661-2.401,1.531-4.698,2.4-7.029c0.278-0.696-0.383,0.8-0.035,0.104
			c0.14-0.313,0.279-0.626,0.419-0.939c0.208-0.487,0.452-0.974,0.661-1.462c0.521-1.043,1.043-2.087,1.635-3.131
			c1.078-1.914,2.229-3.758,3.48-5.568c0.312-0.452,0.625-0.87,0.938-1.322c0.139-0.208,0.278-0.382,0.418-0.557
			c-0.07,0.104-0.731,0.905-0.175,0.209c0.66-0.801,1.322-1.636,2.019-2.401c2.472-2.818,5.185-5.463,8.073-7.83
			c0.35-0.278,0.695-0.557,1.044-0.835c0.903-0.73-0.938,0.696,0.209-0.174c0.661-0.487,1.323-1.009,2.019-1.461
			c1.219-0.87,2.472-1.67,3.725-2.471c2.02-1.253,4.105-2.401,6.229-3.41c0.731-0.348,1.497-0.696,2.229-1.01
			c0.73-0.348-1.637,0.662-0.35,0.14c0.209-0.07,0.418-0.174,0.627-0.244c0.174-0.07,0.349-0.139,0.487-0.174
			c2.681-0.904,4.42-3.584,3.653-6.438C187.384,33.835,184.355,31.852,181.677,32.792L181.677,32.792z"/>
	</g>
</g>
</svg>
