<?xml version="1.0" encoding="utf-8"?>
<!-- Generator: Adobe Illustrator 16.0.0, SVG Export Plug-In . SVG Version: 6.00 Build 0)  -->
<!DOCTYPE svg PUBLIC "-//W3C//DTD SVG 1.1//EN" "http://www.w3.org/Graphics/SVG/1.1/DTD/svg11.dtd">
<svg version="1.1" id="Layer_1" xmlns="http://www.w3.org/2000/svg" xmlns:xlink="http://www.w3.org/1999/xlink" x="0px" y="0px"
	 width="72px" height="72px" viewBox="0 0 72 72" enable-background="new 0 0 72 72" xml:space="preserve">
<rect x="-30.105" y="39.609" fill="#D1B89B" width="12.389" height="4.416"/>
<g id="_x35_mWxbB.tif">
	<g>
		<path fill="#FFFFFF" d="M7.58,38.238c0-1.586,0-3.171,0-4.756c0.157-0.935,0.316-1.865,0.47-2.798
			C9.871,19.761,18.785,10.338,29.583,7.945c1.43-0.317,2.884-0.534,4.329-0.798c1.587,0,3.17,0,4.757,0
			c1.421,0.26,2.849,0.465,4.254,0.787c15.296,3.494,25.045,19.259,21.336,34.475c-3.666,15.039-17.84,24.325-33.115,21.696
			C20.133,62.209,10.94,53.559,8.389,42.663C8.05,41.204,7.846,39.714,7.58,38.238z M33.812,28.057
			c-0.055-1.1-0.026-2.129-0.178-3.135c-0.339-2.294-2.431-3.759-4.927-3.532c-2.022,0.184-3.719,2.129-3.712,4.264
			c0.006,4.728,0.009,9.461,0.025,14.192c0.002,0.574,0.05,1.156,0.134,1.729c0.658,4.512,4.218,7.701,8.766,7.791
			c2.746,0.056,5.489,0.037,8.237,0.004c2.229-0.026,4.008-1.996,4-4.354c-0.009-2.287-1.83-4.231-4.021-4.261
			c-2.353-0.026-4.705-0.021-7.057-0.045c-0.311-0.002-0.632-0.035-0.935-0.112c-0.141-0.035-0.354-0.207-0.358-0.318
			c-0.026-1.147-0.018-2.297-0.018-3.486c2.294,0,4.487,0.014,6.674-0.002c3.957-0.029,5.479-3.562,4.227-6.325
			c-0.705-1.553-2.04-2.389-3.791-2.402C38.534,28.044,36.188,28.057,33.812,28.057z"/>
	</g>
</g>
</svg>
